# xmcd
#
# Track frame offsets:
#	150
#	8478
#	21067
#	33347
#	43974
#	53386
#	61642
#	69485
#	81391
#	89652
#	97535
#	105494
#	116102
#	128800
#	138108
#	146648
#
# Disc length: 2055 seconds
#
# Revision: 0
# Processed by: cddbd v1.5.2PL0 Copyright (c) Steve Scherf et al.
# Submitted via: EasyCDDAExtractor 2010.6.0.0
#
DISCID=c6080510
DTITLE=Johnny Cash - The Collection. CD 1
DYEAR=2010
DGENRE=Gospel, R&R, Country
TTITLE0=Country Boy
TTITLE1=Folsom Prison Blues
TTITLE2=Next In Line
TTITLE3=Train Of Love
TTITLE4=I Got Stripes
TTITLE5=You Dreamer You
TTITLE6=I Can't Help It
TTITLE7=You're The Nearest Thing To Heaven
TTITLE8=It Could Be You (Instead Of Him)
TTITLE9=Old Apache Squaw
TTITLE10=Five Feet High And Rising
TTITLE11=I Just Thought You'd Like To Know
TTITLE12=Supper-Time
TTITLE13=The Caretaker
TTITLE14=Are All The Children In
TTITLE15=If The Good Lord's Willing
EXTD=
EXTT0=
EXTT1=
EXTT2=
EXTT3=
EXTT4=
EXTT5=
EXTT6=
EXTT7=
EXTT8=
EXTT9=
EXTT10=
EXTT11=
EXTT12=
EXTT13=
EXTT14=
EXTT15=
PLAYORDER=
